<svg width="30" height="30" viewBox="0 0 30 30" fill="none" xmlns="http://www.w3.org/2000/svg">
<path opacity="0.5" d="M6.46447 23.5356C7.92893 25.0001 10.286 25.0001 15 25.0001C19.714 25.0001 22.0711 25.0001 23.5355 23.5356C25 22.0711 25 19.714 25 15C25 10.286 25 7.92893 23.5355 6.46447C22.0711 5 19.714 5 15 5C10.286 5 7.92893 5 6.46447 6.46447C5 7.92893 5 10.286 5 15.0001C5 19.7141 5 22.0711 6.46447 23.5356Z" fill="#1C274D"/>
<path d="M10.7649 12.8976C10.7503 12.6442 10.75 12.3043 10.75 11.8076V5.06874C11.9058 5 13.2996 5 15 5C16.7004 5 18.0942 5 19.25 5.06874V11.8076C19.25 12.3043 19.2497 12.6442 19.2351 12.8976C19.22 13.1601 19.1923 13.2408 19.1854 13.2563C19.0383 13.5876 18.6753 13.7662 18.323 13.6807C18.3066 13.6767 18.2257 13.6493 18.0085 13.5012C17.7989 13.3582 17.5294 13.151 17.1358 12.848L17.0688 12.7964C16.6986 12.5109 16.4101 12.2885 16.0958 12.152C15.3968 11.8483 14.6032 11.8483 13.9042 12.152C13.5899 12.2885 13.3014 12.5109 12.9312 12.7964L12.8642 12.848C12.4706 13.151 12.2011 13.3582 11.9915 13.5012C11.7743 13.6493 11.6934 13.6767 11.677 13.6807C11.3247 13.7662 10.9617 13.5876 10.8146 13.2563C10.8077 13.2408 10.78 13.1601 10.7649 12.8976Z" fill="#1C274D"/>
</svg>
