<svg width="30" height="30" viewBox="0 0 30 30" fill="none" xmlns="http://www.w3.org/2000/svg">
<path opacity="0.5" d="M13.5 25V23M17.5 25V23" stroke="#D2DDF9" stroke-width="1.5" stroke-linecap="round"/>
<path d="M14 23V23.75H14.75V23H14ZM17 22.25C16.5858 22.25 16.25 22.5858 16.25 23C16.25 23.4142 16.5858 23.75 17 23.75V22.25ZM20.5 8.25C20.0858 8.25 19.75 8.58579 19.75 9C19.75 9.41421 20.0858 9.75 20.5 9.75V8.25ZM10 8.25C9.58579 8.25 9.25 8.58579 9.25 9C9.25 9.41421 9.58579 9.75 10 9.75V8.25ZM12 22.25C11.5858 22.25 11.25 22.5858 11.25 23C11.25 23.4142 11.5858 23.75 12 23.75V22.25ZM18 23.75C18.4142 23.75 18.75 23.4142 18.75 23C18.75 22.5858 18.4142 22.25 18 22.25V23.75ZM13.25 14.25V23H14.75V14.25H13.25ZM14 22.25H7.23256V23.75H14V22.25ZM5.75 20.3953V14.25H4.25V20.3953H5.75ZM7.23256 22.25C6.51806 22.25 5.75 21.5323 5.75 20.3953H4.25C4.25 22.1354 5.48104 23.75 7.23256 23.75V22.25ZM9.5 9.75C11.4668 9.75 13.25 11.6521 13.25 14.25H14.75C14.75 11.0489 12.5038 8.25 9.5 8.25V9.75ZM9.5 8.25C6.49621 8.25 4.25 11.0489 4.25 14.25H5.75C5.75 11.6521 7.53323 9.75 9.5 9.75V8.25ZM24.25 14.25V20.4253H25.75V14.25H24.25ZM22.7931 22.25H17V23.75H22.7931V22.25ZM24.25 20.4253C24.25 21.5457 23.4934 22.25 22.7931 22.25V23.75C24.5305 23.75 25.75 22.1488 25.75 20.4253H24.25ZM25.75 14.25C25.75 11.0489 23.5038 8.25 20.5 8.25V9.75C22.4668 9.75 24.25 11.6521 24.25 14.25H25.75ZM10 9.75H21V8.25H10V9.75ZM12 23.75H18V22.25H12V23.75Z" fill="white"/>
<path d="M8 19H11" stroke="white" stroke-width="1.5" stroke-linecap="round"/>
<path opacity="0.5" d="M19 12.8843V8.41121M19 8.41121V5.63519C19 5.39905 19.1676 5.19612 19.3994 5.15144L19.8855 5.05779C20.4738 4.94443 21.0821 4.99855 21.6412 5.214L21.7203 5.24451C22.2746 5.4581 22.8807 5.498 23.4582 5.35891C23.7343 5.2924 24 5.50168 24 5.78573V8.00723C24 8.2442 23.8376 8.45031 23.6073 8.5058L23.5407 8.52184C22.9095 8.67387 22.247 8.63026 21.6412 8.39679C21.0821 8.18135 20.4738 8.12722 19.8855 8.24058L19 8.41121Z" stroke="#D2DDF9" stroke-width="1.5" stroke-linecap="round"/>
</svg>
