<svg width="30" height="30" viewBox="0 0 30 30" fill="none" xmlns="http://www.w3.org/2000/svg">
<path opacity="0.5" d="M21.7491 12V12.7041C21.7491 13.5491 21.9903 14.3752 22.4422 15.0782L23.5496 16.8012C24.5612 18.3749 23.789 20.5139 22.0296 21.0116C17.4273 22.3134 12.5727 22.3134 7.97036 21.0116C6.21105 20.5139 5.43882 18.3749 6.45036 16.8012L7.5578 15.0782C8.00972 14.3752 8.25087 13.5491 8.25087 12.7041V12C8.25087 8.13401 11.2726 5 15 5C18.7274 5 21.7491 8.13401 21.7491 12Z" fill="#1C274C"/>
<path d="M15.75 9C15.75 8.58579 15.4142 8.25 15 8.25C14.5858 8.25 14.25 8.58579 14.25 9V13C14.25 13.4142 14.5858 13.75 15 13.75C15.4142 13.75 15.75 13.4142 15.75 13V9Z" fill="#1C274C"/>
<path d="M10.2432 21.5449C10.8941 23.5501 12.7777 24.9997 14.9998 24.9997C17.222 24.9997 19.1055 23.5501 19.7565 21.5449C16.611 22.1352 13.3886 22.1352 10.2432 21.5449Z" fill="#1C274C"/>
</svg>
