<svg width="30" height="30" viewBox="0 0 30 30" fill="none" xmlns="http://www.w3.org/2000/svg">
<path fill-rule="evenodd" clip-rule="evenodd" d="M13.0303 9.46967C12.7374 9.17678 12.2626 9.17678 11.9697 9.46967L6.96967 14.4697C6.67678 14.7626 6.67678 15.2374 6.96967 15.5303L11.9697 20.5303C12.2626 20.8232 12.7374 20.8232 13.0303 20.5303C13.3232 20.2374 13.3232 19.7626 13.0303 19.4697L8.56066 15L13.0303 10.5303C13.3232 10.2374 13.3232 9.76256 13.0303 9.46967Z" fill="#1C58F2"/>
<g opacity="0.5">
<path d="M9.31066 14.25H17.5C18.4534 14.25 19.8667 14.5298 21.0632 15.3914C22.298 16.2804 23.25 17.7556 23.25 20C23.25 20.4142 22.9142 20.75 22.5 20.75C22.0858 20.75 21.75 20.4142 21.75 20C21.75 18.2444 21.0353 17.2196 20.1868 16.6087C19.3 15.9702 18.2133 15.75 17.5 15.75L9.31066 15.75L8.56066 15L9.31066 14.25Z" fill="#1C58F2"/>
<path d="M6.80691 14.7129C6.77024 14.8013 6.75 14.8983 6.75 15C6.75 14.9023 6.76897 14.8046 6.80691 14.7129Z" fill="#1C58F2"/>
</g>
</svg>
